<?xml version="1.0" encoding="UTF-8"?>
<svg viewBox="0 0 500 500" xmlns="http://www.w3.org/2000/svg">
  <defs>
    <!-- Filtro para adicionar um sutil efeito de glow -->
    <filter id="glow" x="-10%" y="-10%" width="120%" height="120%">
      <feGaussianBlur stdDeviation="2" result="blur"/>
      <feComposite in="SourceGraphic" in2="blur" operator="over"/>
    </filter>
    
    <!-- Padrão para efeito de textura digital -->
    <pattern id="digitalNoise" width="100" height="100" patternUnits="userSpaceOnUse">
      <rect width="100" height="100" fill="none"/>
      <path d="M0,0 L10,0 L10,10 L0,10 Z" fill="white" fill-opacity="0.02" transform="translate(0,0)"/>
      <path d="M0,0 L10,0 L10,10 L0,10 Z" fill="white" fill-opacity="0.02" transform="translate(20,20)"/>
      <path d="M0,0 L10,0 L10,10 L0,10 Z" fill="white" fill-opacity="0.02" transform="translate(40,40)"/>
      <path d="M0,0 L10,0 L10,10 L0,10 Z" fill="white" fill-opacity="0.02" transform="translate(60,60)"/>
      <path d="M0,0 L10,0 L10,10 L0,10 Z" fill="white" fill-opacity="0.02" transform="translate(80,80)"/>
    </pattern>
  </defs>
  
  <!-- Fundo transparente -->
  <rect width="500" height="500" fill="none"/>
  
  <!-- Círculo externo principal -->
  <circle cx="250" cy="250" r="240" fill="none" stroke="white" stroke-width="1.5" stroke-opacity="0.08"/>
  
  <!-- Círculo secundário externo com padrão pulsante -->
  <circle cx="250" cy="250" r="225" fill="none" stroke="white" stroke-width="1" stroke-opacity="0.06" stroke-dasharray="1,3"/>
  
  <!-- Círculo tertceiro com padrões -->
  <circle cx="250" cy="250" r="210" fill="none" stroke="white" stroke-width="2" stroke-opacity="0.1"/>
  
  <!-- Geometria sagrada - Flor da vida parcial -->
  <g fill="none" stroke="white" stroke-width="0.5" stroke-opacity="0.08">
    <circle cx="250" cy="250" r="180"/>
    <circle cx="250" cy="250" r="155"/>
    <circle cx="250" cy="250" r="130"/>
    <circle cx="250" cy="250" r="105"/>
    <circle cx="250" cy="250" r="80"/>
    <circle cx="250" cy="250" r="55"/>
  </g>
  
  <!-- Padrões tribais angulares - Reminiscentes da imagem de referência -->
  <g fill="none" stroke="white" stroke-width="1.2" stroke-opacity="0.09">
    <!-- Padrão superior central -->
    <path d="M250,70 L250,20 M250,70 L280,50 M250,70 L220,50" />
    <path d="M250,70 L290,80 L320,60 L290,40 L250,70" />
    <path d="M250,70 L210,80 L180,60 L210,40 L250,70" />
    
    <!-- Padrões laterais - Asas estilizadas como na jaqueta -->
    <path d="M140,250 L100,230 L70,270 L100,310 L70,350 L100,370 L140,340" />
    <path d="M360,250 L400,230 L430,270 L400,310 L430,350 L400,370 L360,340" />
    
    <!-- Padrão inferior central -->
    <path d="M250,430 L250,480 M250,430 L280,450 M250,430 L220,450" />
    <path d="M250,430 L290,420 L320,440 L290,460 L250,430" />
    <path d="M250,430 L210,420 L180,440 L210,460 L250,430" />
  </g>
  
  <!-- Elementos rúnicos e glifos dispersos -->
  <g fill="none" stroke="white" stroke-width="0.8" stroke-opacity="0.1">
    <!-- Runas abstratas -->
    <path d="M310,150 L330,130 L325,110 L305,120 L310,150" />
    <path d="M190,150 L170,130 L175,110 L195,120 L190,150" />
    <path d="M310,350 L330,370 L325,390 L305,380 L310,350" />
    <path d="M190,350 L170,370 L175,390 L195,380 L190,350" />
    
    <!-- Símbolos tecnomísticos -->
    <path d="M250,155 L250,165 M245,160 L255,160" />
    <path d="M250,345 L250,335 M245,340 L255,340" />
    <path d="M155,250 L165,250 M160,245 L160,255" />
    <path d="M345,250 L335,250 M340,245 L340,255" />
  </g>
  
  <!-- Mandala central -->
  <g fill="none" stroke="white" stroke-opacity="0.1">
    <!-- Base geométrica -->
    <path d="M250,170 L280,220 L250,270 L220,220 Z" stroke-width="1.5"/>
    <path d="M250,230 L280,280 L250,330 L220,280 Z" stroke-width="1.5"/>
    <path d="M170,250 L220,280 L270,250 L220,220 Z" stroke-width="1.5"/>
    <path d="M230,250 L280,280 L330,250 L280,220 Z" stroke-width="1.5"/>
    
    <!-- Detalhes centrais -->
    <circle cx="250" cy="250" r="35" stroke-width="1"/>
    <circle cx="250" cy="250" r="25" stroke-width="0.7"/>
    <circle cx="250" cy="250" r="15" stroke-width="0.5"/>
    
    <!-- Elementos angulares centro -->
    <path d="M250,215 L260,220 L250,225 L240,220 Z" stroke-width="0.8"/>
    <path d="M250,275 L260,280 L250,285 L240,280 Z" stroke-width="0.8"/>
    <path d="M215,250 L220,260 L225,250 L220,240 Z" stroke-width="0.8"/>
    <path d="M275,250 L280,260 L285,250 L280,240 Z" stroke-width="0.8"/>
  </g>
  
  <!-- Linhas diagonais de interseção -->
  <g stroke="white" stroke-width="0.5" stroke-opacity="0.07">
    <line x1="100" y1="100" x2="400" y2="400"/>
    <line x1="400" y1="100" x2="100" y2="400"/>
    <line x1="250" y1="70" x2="250" y2="430"/>
    <line x1="70" y1="250" x2="430" y2="250"/>
  </g>
  
  <!-- Elementos abstratos inspirados nos padrões da jaqueta -->
  <g fill="none" stroke="white" stroke-width="0.8" stroke-opacity="0.09">
    <!-- Formas tribais estilizadas -->
    <path d="M180,145 C200,125 220,135 230,155 C240,135 260,125 280,145 C260,165 260,185 250,195 C240,185 240,165 220,145"/>
    <path d="M180,355 C200,375 220,365 230,345 C240,365 260,375 280,355 C260,335 260,315 250,305 C240,315 240,335 220,355"/>
  </g>
  
  <!-- Detalhes finos e minimalistas -->
  <g stroke="white" stroke-width="0.3" stroke-opacity="0.09">
    <!-- Padrões fractais orgânicos -->
    <path d="M150,150 Q200,100 250,150 Q300,100 350,150 Q400,200 350,250 Q400,300 350,350 Q300,400 250,350 Q200,400 150,350 Q100,300 150,250 Q100,200 150,150" fill="none"/>
    
    <!-- Pontos de foco -->
    <circle cx="250" cy="175" r="3" stroke-opacity="0.2"/>
    <circle cx="250" cy="325" r="3" stroke-opacity="0.2"/>
    <circle cx="175" cy="250" r="3" stroke-opacity="0.2"/>
    <circle cx="325" cy="250" r="3" stroke-opacity="0.2"/>
  </g>
  
  <!-- Códigos rúnicos digitais ao redor do círculo -->
  <g fill="none" stroke="white" stroke-width="0.7" stroke-opacity="0.1">
    <!-- 12 marcas posicionais -->
    <path d="M250,30 M245,32 L255,32 M250,30 L250,40" transform="rotate(0 250 250)"/>
    <path d="M250,30 M245,32 L255,32 M250,30 L250,40" transform="rotate(30 250 250)"/>
    <path d="M250,30 M245,32 L255,32 M250,30 L250,40" transform="rotate(60 250 250)"/>
    <path d="M250,30 M245,32 L255,32 M250,30 L250,40" transform="rotate(90 250 250)"/>
    <path d="M250,30 M245,32 L255,32 M250,30 L250,40" transform="rotate(120 250 250)"/>
    <path d="M250,30 M245,32 L255,32 M250,30 L250,40" transform="rotate(150 250 250)"/>
    <path d="M250,30 M245,32 L255,32 M250,30 L250,40" transform="rotate(180 250 250)"/>
    <path d="M250,30 M245,32 L255,32 M250,30 L250,40" transform="rotate(210 250 250)"/>
    <path d="M250,30 M245,32 L255,32 M250,30 L250,40" transform="rotate(240 250 250)"/>
    <path d="M250,30 M245,32 L255,32 M250,30 L250,40" transform="rotate(270 250 250)"/>
    <path d="M250,30 M245,32 L255,32 M250,30 L250,40" transform="rotate(300 250 250)"/>
    <path d="M250,30 M245,32 L255,32 M250,30 L250,40" transform="rotate(330 250 250)"/>
  </g>
  
  <!-- Efeito sutilíssimo de textura digital -->
  <circle cx="250" cy="250" r="245" fill="url(#digitalNoise)" fill-opacity="0.02"/>
</svg>